<?xml version="1.0" encoding="UTF-8" standalone="no"?>
<svg
   width="210mm"
   height="297mm"
   viewBox="0 0 210 297"
   version="1.1"
   id="svg8"
   inkscape:version="1.1.1 (3bf5ae0d25, 2021-09-20, custom)"
   sodipodi:docname="mascot.svg"
   xmlns:inkscape="http://www.inkscape.org/namespaces/inkscape"
   xmlns:sodipodi="http://sodipodi.sourceforge.net/DTD/sodipodi-0.dtd"
   xmlns="http://www.w3.org/2000/svg"
   xmlns:svg="http://www.w3.org/2000/svg"
   xmlns:rdf="http://www.w3.org/1999/02/22-rdf-syntax-ns#"
   xmlns:cc="http://creativecommons.org/ns#"
   xmlns:dc="http://purl.org/dc/elements/1.1/">
  <defs
     id="defs2">
    <clipPath
       clipPathUnits="userSpaceOnUse"
       id="clipPath1876">
      <path
         style="fill-opacity:0.998459;stroke-width:1.45287"
         d="M 43.776651,-46.565841 H 215.39458 c 3.05971,0 5.52294,2.463231 5.52294,5.522939 V 130.57503 c 0,3.05971 -2.46323,5.52294 -5.52294,5.52294 H 43.776651 c -3.05971,0 -5.522952,-2.46323 -5.522952,-5.52294 V -41.042902 c 0,-3.059708 2.463242,-5.522939 5.522952,-5.522939 z"
         id="path1878" />
    </clipPath>
    <clipPath
       clipPathUnits="userSpaceOnUse"
       id="clipPath1880">
      <path
         style="fill-opacity:0.998459;stroke-width:1.45287"
         d="M 43.776651,-46.565841 H 215.39458 c 3.05971,0 5.52294,2.463231 5.52294,5.522939 V 130.57503 c 0,3.05971 -2.46323,5.52294 -5.52294,5.52294 H 43.776651 c -3.05971,0 -5.522952,-2.46323 -5.522952,-5.52294 V -41.042902 c 0,-3.059708 2.463242,-5.522939 5.522952,-5.522939 z"
         id="path1882" />
    </clipPath>
    <clipPath
       clipPathUnits="userSpaceOnUse"
       id="clipPath1884">
      <path
         style="fill-opacity:0.998459;stroke-width:1.45287"
         d="M 43.776651,-46.565841 H 215.39458 c 3.05971,0 5.52294,2.463231 5.52294,5.522939 V 130.57503 c 0,3.05971 -2.46323,5.52294 -5.52294,5.52294 H 43.776651 c -3.05971,0 -5.522952,-2.46323 -5.522952,-5.52294 V -41.042902 c 0,-3.059708 2.463242,-5.522939 5.522952,-5.522939 z"
         id="path1886" />
    </clipPath>
    <clipPath
       clipPathUnits="userSpaceOnUse"
       id="clipPath1888">
      <path
         style="fill-opacity:0.998459;stroke-width:1.45287"
         d="M 43.776651,-46.565841 H 215.39458 c 3.05971,0 5.52294,2.463231 5.52294,5.522939 V 130.57503 c 0,3.05971 -2.46323,5.52294 -5.52294,5.52294 H 43.776651 c -3.05971,0 -5.522952,-2.46323 -5.522952,-5.52294 V -41.042902 c 0,-3.059708 2.463242,-5.522939 5.522952,-5.522939 z"
         id="path1890" />
    </clipPath>
    <clipPath
       clipPathUnits="userSpaceOnUse"
       id="clipPath1892">
      <path
         style="fill-opacity:0.998459;stroke-width:1.45287"
         d="M 43.776651,-46.565841 H 215.39458 c 3.05971,0 5.52294,2.463231 5.52294,5.522939 V 130.57503 c 0,3.05971 -2.46323,5.52294 -5.52294,5.52294 H 43.776651 c -3.05971,0 -5.522952,-2.46323 -5.522952,-5.52294 V -41.042902 c 0,-3.059708 2.463242,-5.522939 5.522952,-5.522939 z"
         id="path1894" />
    </clipPath>
  </defs>
  <sodipodi:namedview
     id="base"
     pagecolor="#ffffff"
     bordercolor="#666666"
     borderopacity="1.0"
     inkscape:pageopacity="0.0"
     inkscape:pageshadow="2"
     inkscape:zoom="0.35"
     inkscape:cx="841.42857"
     inkscape:cy="560"
     inkscape:document-units="mm"
     inkscape:current-layer="layer1"
     inkscape:document-rotation="0"
     showgrid="false"
     showborder="false"
     inkscape:pagecheckerboard="0"
     inkscape:window-width="1916"
     inkscape:window-height="1041"
     inkscape:window-x="0"
     inkscape:window-y="18"
     inkscape:window-maximized="1" />
  <metadata
     id="metadata5">
    <rdf:RDF>
      <cc:Work
         rdf:about="">
        <dc:format>image/svg+xml</dc:format>
        <dc:type
           rdf:resource="http://purl.org/dc/dcmitype/StillImage" />
      </cc:Work>
    </rdf:RDF>
  </metadata>
  <g
     inkscape:label="Layer 1"
     inkscape:groupmode="layer"
     id="layer1">
    <path
       style="fill:#00ffff;fill-opacity:0.998459;stroke-width:2"
       d="M -56.494152,-62.805481 H 311.66206 c 4.21195,0 7.6028,3.39085 7.6028,7.602802 v 51.6975177 c 0,4.21195248 -3.39085,7.6028023 -7.6028,7.6028023 H -56.494152 c -4.211953,0 -7.602802,-3.39084982 -7.602802,-7.6028023 V -55.202679 c 0,-4.211952 3.390849,-7.602802 7.602802,-7.602802 z"
       id="rect994"
       clip-path="url(#clipPath1892)"
       transform="rotate(-10.043974,129.58561,44.766065)" />
    <path
       style="fill:#ff8080;fill-opacity:0.998459;stroke-width:2"
       d="M -56.494152,-19.91889 H 311.66206 c 4.21195,0 7.6028,3.39085 7.6028,7.602802 V 39.38143 c 0,4.211952 -3.39085,7.602802 -7.6028,7.602802 H -56.494152 c -4.211953,0 -7.602802,-3.39085 -7.602802,-7.602802 v -51.697518 c 0,-4.211952 3.390849,-7.602802 7.602802,-7.602802 z"
       id="rect996"
       clip-path="url(#clipPath1888)"
       transform="rotate(-10.043974,129.58561,44.766065)" />
    <path
       style="fill:#ff6600;fill-opacity:0.998459;stroke-width:2"
       d="M -56.494152,22.967699 H 311.66206 c 4.21195,0 7.6028,3.39085 7.6028,7.602802 v 51.697518 c 0,4.211952 -3.39085,7.602802 -7.6028,7.602802 H -56.494152 c -4.211953,0 -7.602802,-3.39085 -7.602802,-7.602802 V 30.570501 c 0,-4.211952 3.390849,-7.602802 7.602802,-7.602802 z"
       id="rect1096"
       clip-path="url(#clipPath1884)"
       transform="rotate(-10.043974,129.58561,44.766065)" />
    <path
       style="fill:#ffdd55;fill-opacity:0.998459;stroke-width:2"
       d="M -56.494152,65.854286 H 311.66206 c 4.21195,0 7.6028,3.39085 7.6028,7.602802 v 51.697522 c 0,4.21195 -3.39085,7.6028 -7.6028,7.6028 H -56.494152 c -4.211953,0 -7.602802,-3.39085 -7.602802,-7.6028 V 73.457088 c 0,-4.211952 3.390849,-7.602802 7.602802,-7.602802 z"
       id="rect1116"
       clip-path="url(#clipPath1880)"
       transform="rotate(-10.043974,129.58561,44.766065)" />
    <path
       style="fill:#00ff00;fill-opacity:0.998459;stroke-width:2"
       d="M -56.494152,108.74088 H 311.66206 c 4.21195,0 7.6028,3.39085 7.6028,7.60281 v 51.69751 c 0,4.21196 -3.39085,7.6028 -7.6028,7.6028 H -56.494152 c -4.211953,0 -7.602802,-3.39084 -7.602802,-7.6028 v -51.69751 c 0,-4.21196 3.390849,-7.60281 7.602802,-7.60281 z"
       id="rect1136"
       clip-path="url(#clipPath1876)"
       transform="rotate(-10.043974,129.58561,44.766065)" />
  </g>
</svg>
